<?xml version="1.0" standalone="no"?>
<!DOCTYPE svg PUBLIC "-//W3C//DTD SVG 20010904//EN"
 "http://www.w3.org/TR/2001/REC-SVG-20010904/DTD/svg10.dtd">
<svg version="1.0" xmlns="http://www.w3.org/2000/svg"
 width="1159.000000pt" height="896.000000pt" viewBox="0 0 1159.000000 896.000000"
 preserveAspectRatio="xMidYMid meet">

<g transform="translate(0.000000,896.000000) scale(0.100000,-0.100000)"
fill="#000000" stroke="none">
<path d="M802 8925 c-397 -89 -670 -445 -648 -845 11 -218 82 -382 230 -539
144 -150 329 -235 543 -248 389 -23 727 211 845 587 20 66 23 95 23 235 0 140
-3 169 -23 235 -89 281 -302 490 -577 566 -83 23 -309 28 -393 9z"/>
<path d="M3240 8915 c-329 -70 -569 -297 -655 -621 -9 -32 -20 -135 -26 -227
-5 -93 -16 -203 -25 -245 -38 -188 -117 -365 -228 -512 -82 -109 -458 -481
-556 -549 -150 -106 -362 -194 -525 -220 -38 -6 -144 -15 -235 -20 -120 -7
-184 -16 -235 -31 -149 -47 -271 -125 -384 -246 -57 -61 -84 -101 -126 -188
-73 -152 -89 -220 -88 -381 0 -100 5 -149 22 -210 87 -326 338 -560 666 -622
126 -24 295 -14 415 26 276 90 488 313 564 596 10 35 20 134 26 240 10 200 36
326 95 466 86 203 161 303 442 580 230 228 317 296 465 363 198 90 360 121
602 113 236 -7 385 -45 574 -148 127 -68 196 -126 438 -371 246 -249 308 -328
383 -490 76 -164 106 -302 116 -523 3 -77 13 -171 22 -209 30 -136 105 -279
202 -388 89 -100 249 -197 393 -239 105 -30 288 -37 399 -14 334 67 597 330
664 664 23 111 16 294 -14 399 -48 167 -162 335 -293 435 -101 76 -148 101
-258 138 -83 27 -116 33 -260 41 -446 24 -661 123 -1008 462 -269 263 -370
394 -454 589 -65 148 -88 257 -99 455 -5 95 -16 204 -25 243 -69 303 -307 551
-609 634 -83 23 -301 29 -385 10z"/>
<path d="M5666 8914 c-265 -57 -476 -225 -591 -469 -77 -163 -101 -332 -71
-503 33 -192 115 -342 261 -480 69 -65 107 -92 188 -132 140 -69 225 -89 437
-100 304 -16 504 -86 730 -256 137 -104 479 -454 557 -571 149 -224 207 -409
223 -718 10 -184 25 -255 80 -373 62 -132 182 -268 308 -350 326 -210 770
-167 1047 103 174 169 246 344 260 625 11 240 50 401 138 576 70 139 137 225
321 412 266 271 395 371 587 454 149 64 260 88 454 98 196 11 211 13 323 47
89 27 207 93 286 158 114 95 230 279 271 430 22 83 30 265 16 350 -31 186
-108 334 -240 466 -132 132 -280 209 -466 240 -85 14 -267 6 -350 -16 -151
-41 -335 -157 -430 -271 -65 -79 -131 -197 -158 -286 -34 -112 -36 -127 -47
-323 -10 -194 -34 -305 -98 -454 -83 -192 -183 -321 -454 -587 -187 -184 -273
-251 -412 -321 -157 -79 -299 -118 -486 -132 -325 -25 -645 67 -890 255 -96
73 -493 483 -547 564 -149 223 -208 406 -222 695 -10 198 -27 275 -86 400
-116 247 -329 414 -598 469 -94 20 -249 19 -341 0z"/>
<path d="M10521 6489 c-296 -58 -537 -278 -631 -574 -34 -107 -39 -310 -11
-430 70 -295 289 -522 587 -607 105 -30 313 -32 419 -4 295 77 524 306 601
601 25 97 25 314 0 405 -84 306 -309 529 -606 600 -91 21 -273 26 -359 9z"/>
<path d="M1591 4499 c-267 -69 -459 -270 -517 -539 -21 -101 -20 -2018 1
-2128 44 -218 215 -424 409 -492 152 -54 369 -69 496 -36 208 54 391 205 484
399 56 116 68 174 73 360 l5 167 -236 0 -236 0 0 -125 c0 -137 -14 -194 -66
-262 -56 -74 -198 -111 -307 -79 -70 20 -118 67 -149 145 l-23 56 0 920 0 920
23 72 c40 129 103 176 237 177 67 1 88 -3 130 -25 59 -30 105 -87 134 -164 17
-45 21 -79 21 -170 l0 -115 236 0 237 0 -6 168 c-4 128 -10 184 -27 241 -46
162 -144 309 -263 398 -131 97 -255 133 -451 132 -96 0 -151 -5 -205 -20z"/>
<path d="M3440 4504 c-155 -40 -311 -154 -401 -292 -90 -138 -118 -252 -119
-489 l0 -153 235 0 235 0 0 159 c0 206 18 258 103 303 63 33 180 32 229 -2 47
-32 86 -92 94 -146 3 -24 4 -130 2 -236 -4 -178 -6 -198 -29 -253 -14 -33
-215 -418 -447 -856 l-422 -796 0 -216 0 -217 685 0 685 0 0 235 0 235 -405 0
c-223 0 -405 2 -405 4 0 2 167 325 370 717 225 433 380 744 394 790 30 94 46
230 46 396 -1 213 -27 345 -97 492 -79 165 -221 281 -398 326 -76 19 -280 19
-355 -1z"/>
<path d="M5232 4501 c-144 -36 -289 -127 -377 -239 -61 -75 -129 -217 -155
-320 -27 -109 -38 -263 -29 -405 16 -239 81 -411 198 -526 88 -86 174 -134
444 -246 280 -116 313 -133 364 -188 59 -64 68 -114 68 -372 0 -175 -3 -219
-18 -262 -44 -126 -125 -183 -273 -191 -154 -8 -249 40 -306 155 -31 64 -33
75 -37 190 l-3 123 -235 0 -236 0 6 -152 c6 -178 19 -237 82 -363 147 -299
440 -449 805 -415 392 37 611 263 669 693 14 101 14 417 0 527 -24 200 -69
302 -178 410 -95 94 -152 124 -470 251 -134 54 -267 114 -296 133 -67 44 -100
99 -116 191 -15 86 -6 280 15 351 31 102 107 180 200 205 51 14 161 6 212 -16
114 -47 184 -193 184 -382 l0 -83 231 0 231 0 -4 193 c-3 168 -7 200 -27 257
-80 231 -287 419 -529 481 -101 26 -314 26 -420 0z"/>
<path d="M60 2905 l0 -1595 230 0 230 0 0 1595 0 1595 -230 0 -230 0 0 -1595z"/>
<path d="M6740 2905 l0 -1595 230 0 230 0 2 950 3 950 345 -948 346 -947 222
-3 222 -2 0 1595 0 1595 -235 0 -235 0 -2 -950 -3 -949 -340 949 -340 950
-222 0 -223 0 0 -1595z"/>
<path d="M8860 2905 l0 -1595 685 0 685 0 0 235 0 235 -450 0 -450 0 0 460 0
460 390 0 390 0 0 220 0 220 -390 0 -390 0 0 460 0 460 450 0 450 0 0 220 0
220 -685 0 -685 0 0 -1595z"/>
<path d="M10500 4280 l0 -220 260 0 260 0 0 -1375 0 -1375 235 0 235 0 0 1595
0 1595 -495 0 -495 0 0 -220z"/>
<path d="M3307 836 c-45 -17 -82 -49 -105 -91 -14 -25 -18 -70 -20 -281 -4
-287 1 -319 57 -375 82 -83 229 -73 299 19 l27 35 3 283 c3 269 2 285 -18 324
-41 80 -153 120 -243 86z m123 -136 c19 -19 20 -33 20 -260 0 -227 -1 -241
-20 -260 -24 -24 -77 -26 -102 -3 -16 15 -18 36 -18 261 0 214 2 248 17 264
22 24 77 24 103 -2z"/>
<path d="M7605 832 c-22 -11 -50 -30 -62 -43 -67 -73 -70 -249 -6 -321 10 -12
59 -40 110 -64 50 -23 96 -52 102 -63 17 -30 14 -133 -5 -159 -12 -17 -25 -22
-59 -22 -51 0 -75 24 -75 77 l0 33 -66 0 -67 0 6 -51 c4 -28 15 -68 25 -88 74
-143 319 -127 361 24 15 56 14 209 -3 248 -19 46 -42 63 -142 105 -102 44
-118 63 -109 131 7 56 29 81 71 81 41 0 74 -38 74 -86 l0 -34 60 0 60 0 0 58
c0 71 -23 117 -77 155 -54 38 -140 46 -198 19z"/>
<path d="M8880 823 c-42 -22 -60 -38 -77 -72 -22 -43 -23 -53 -23 -309 0 -249
1 -268 21 -309 52 -108 210 -134 306 -50 56 49 63 76 63 252 l0 155 -105 0
-105 0 0 -54 0 -55 43 -3 42 -3 0 -86 c0 -71 -3 -91 -19 -108 -28 -31 -79 -28
-105 5 -20 25 -21 39 -21 254 0 215 1 229 21 254 15 19 30 26 53 26 42 0 66
-26 73 -79 l6 -41 60 0 60 0 -5 65 c-7 82 -35 126 -102 160 -66 33 -118 32
-186 -2z"/>
<path d="M60 440 l0 -400 65 0 65 0 0 218 1 217 23 -60 c12 -33 48 -131 80
-218 l58 -157 59 0 59 0 0 400 0 400 -60 0 -60 0 0 -215 c0 -118 -3 -215 -7
-215 -5 0 -42 96 -84 213 l-75 212 -62 3 -62 3 0 -401z"/>
<path d="M860 440 l0 -400 175 0 175 0 0 60 0 60 -115 0 -115 0 0 115 0 115
100 0 100 0 0 55 0 55 -100 0 -100 0 0 110 0 110 115 0 115 0 0 60 0 60 -175
0 -175 0 0 -400z"/>
<path d="M1520 780 l0 -60 65 0 65 0 0 -340 0 -340 60 0 60 0 0 340 0 340 65
0 65 0 0 60 0 60 -190 0 -190 0 0 -60z"/>
<path d="M2210 833 c-1 -5 25 -185 57 -401 l58 -393 60 3 59 3 38 224 c20 123
39 225 42 228 6 6 7 -1 49 -257 l33 -195 59 -3 60 -3 58 393 c32 216 57 396
57 401 0 4 -29 7 -65 7 -36 0 -65 -3 -65 -7 0 -25 -42 -412 -47 -433 -4 -16
-21 57 -47 205 l-42 230 -49 3 -50 3 -34 -198 c-19 -109 -38 -209 -42 -223
l-6 -25 -6 25 c-5 21 -47 391 -47 413 0 4 -29 7 -65 7 -36 0 -65 -3 -65 -7z"/>
<path d="M3960 440 l0 -400 65 0 65 0 0 171 0 170 27 -3 c31 -3 30 -1 93 -206
l41 -132 65 0 c35 0 64 4 64 8 0 5 -26 86 -58 181 l-58 171 28 25 c49 44 62
81 63 180 0 116 -27 176 -94 212 -40 21 -58 23 -173 23 l-128 0 0 -400z m247
258 c20 -18 23 -31 23 -92 0 -91 -20 -116 -92 -116 l-48 0 0 115 0 115 47 0
c34 0 53 -6 70 -22z"/>
<path d="M4740 440 l0 -400 60 0 60 0 0 115 c0 104 3 121 26 167 14 28 29 47
34 42 4 -5 31 -74 60 -154 29 -80 55 -151 57 -158 6 -14 133 -17 133 -3 0 5
-40 113 -90 241 l-90 231 75 149 c41 82 75 155 75 160 0 7 -23 10 -61 8 l-62
-3 -72 -158 c-40 -87 -75 -161 -79 -164 -3 -4 -6 69 -6 160 l0 167 -60 0 -60
0 0 -400z"/>
<path d="M6020 439 l0 -401 128 3 c112 4 131 7 165 28 21 12 48 42 60 65 20
38 22 56 25 276 5 317 -8 368 -102 411 -32 15 -66 19 -158 19 l-118 0 0 -401z
m234 259 c13 -19 16 -61 16 -258 0 -277 -1 -280 -81 -280 l-49 0 0 280 0 280
49 0 c40 0 53 -4 65 -22z"/>
<path d="M6790 440 l0 -400 175 0 175 0 0 60 0 60 -110 0 -110 0 0 115 0 115
95 0 95 0 0 55 0 55 -95 0 -95 0 0 110 0 110 110 0 110 0 0 60 0 60 -175 0
-175 0 0 -400z"/>
<path d="M8260 440 l0 -400 65 0 65 0 0 400 0 400 -65 0 -65 0 0 -400z"/>
<path d="M9560 440 l0 -400 60 0 60 0 1 218 c1 253 -8 256 99 -40 l64 -178 58
0 58 0 0 400 0 400 -60 0 -60 0 0 -210 c0 -115 -3 -210 -7 -210 -5 0 -42 95
-82 210 l-75 210 -58 0 -58 0 0 -400z"/>
<path d="M10350 440 l0 -400 175 0 175 0 0 60 0 60 -110 0 -110 0 0 115 0 115
95 0 95 0 0 55 0 55 -95 0 -95 0 0 110 0 110 110 0 110 0 0 60 0 60 -175 0
-175 0 0 -400z"/>
<path d="M11070 440 l0 -400 60 0 60 0 0 170 0 170 24 0 c13 0 28 -6 33 -12 5
-7 31 -84 58 -171 l49 -157 63 0 c40 0 63 4 63 11 0 7 -26 87 -57 179 l-57
166 36 36 c65 65 78 225 27 319 -39 71 -86 89 -236 89 l-123 0 0 -400z m234
267 c39 -29 42 -161 5 -198 -14 -14 -34 -19 -69 -19 l-50 0 0 115 0 115 48 0
c27 0 56 -6 66 -13z"/>
</g>
</svg>
